<?xml version="1.0" encoding="UTF-8"?>
<svg width="24" height="24" viewBox="0 0 24 24" fill="none" xmlns="http://www.w3.org/2000/svg">
  <path
    d="M5.88873 2.85383C7.69763 1.64516 9.82432 1.00003 11.9999 1L5.88873 2.85383ZM5.88873 2.85383C4.07979 4.06253 2.66989 5.78049 1.83733 7.79048M5.88873 2.85383L1.83733 7.79048M1.83733 7.79048C1.00477 9.80047 0.786929 12.0122 1.21137 14.146M1.83733 7.79048L1.21137 14.146M1.21137 14.146C1.6358 16.2798 2.68345 18.2398 4.22183 19.7782M1.21137 14.146L4.22183 19.7782M4.22183 19.7782C5.76021 21.3165 7.72022 22.3642 9.85401 22.7886M4.22183 19.7782L9.85401 22.7886M9.85401 22.7886C11.9878 23.2131 14.1995 22.9952 16.2095 22.1627M9.85401 22.7886L16.2095 22.1627M16.2095 22.1627C18.2195 21.3301 19.9375 19.9202 21.1462 18.1113M16.2095 22.1627L21.1462 18.1113M21.1462 18.1113C22.3548 16.3024 23 14.1757 23 12.0001L21.1462 18.1113ZM12.0407 8.01813C12.0375 8.01872 12.0343 8.01895 12.0312 8.01883L12.0325 7.98485L12.0328 7.97612L12.0416 7.97608L12.0756 7.97591C12.0756 7.97909 12.0752 7.98228 12.0745 7.98541C12.0742 7.98683 12.0738 7.98823 12.0734 7.98961C12.0712 7.99612 12.0675 8.00205 12.0625 8.00685C12.0576 8.01166 12.0515 8.01517 12.0449 8.01711C12.0435 8.01752 12.0421 8.01786 12.0407 8.01813ZM12.0355 7.96976L12.0331 7.96975L12.0345 7.93342C12.0397 7.93362 12.0447 7.93476 12.0494 7.93674C12.0524 7.93797 12.0552 7.93954 12.0578 7.94141C12.062 7.94442 12.0655 7.94815 12.0684 7.9524C12.0701 7.95504 12.0716 7.95789 12.0728 7.96089C12.0739 7.96379 12.0746 7.96678 12.0751 7.96982L12.0495 7.96978L12.0424 7.96977L12.0374 7.96976L12.0355 7.96976ZM12.0251 8.01815C12.0221 8.01759 12.0191 8.01671 12.0162 8.01551C12.0133 8.01426 12.0105 8.01269 12.0079 8.01083C12.0038 8.00785 12.0002 8.00414 11.9973 7.99985C11.9955 7.99718 11.994 7.99433 11.9929 7.99136C11.9911 7.98659 11.9901 7.9815 11.9901 7.97634L12.0265 7.97616L12.0264 7.97858L12.0263 7.98047L12.0262 7.98542L12.0259 7.99252L12.0251 8.01815ZM12.0274 7.9471L12.0267 7.96975L12.004 7.96971L11.9901 7.96968C11.9901 7.96867 11.9901 7.96765 11.9902 7.96664C11.9906 7.96278 11.9915 7.959 11.993 7.95542C11.9949 7.95092 11.9977 7.94684 12.0013 7.94344C12.0048 7.94003 12.0089 7.93737 12.0135 7.93561C12.0171 7.93421 12.021 7.9334 12.0248 7.93321C12.0258 7.93316 12.0268 7.93315 12.0279 7.93318L12.0274 7.9471ZM23 12C23.0002 10.5554 22.7158 9.12498 22.1631 7.79033C21.6103 6.45564 20.8001 5.24292 19.7786 4.22142C18.7571 3.19993 17.5444 2.38967 16.2097 1.83693C14.875 1.28421 13.4446 0.99982 12 1L23 12Z"
    stroke="#FF4334" stroke-width="2" />
</svg>
  