<?xml version="1.0" encoding="UTF-8"?>
<svg width="23" height="17" viewBox="0 0 23 17" fill="none" xmlns="http://www.w3.org/2000/svg">
  <path
    d="M14.7468 9.58867C14.7468 10.249 14.551 10.8945 14.1841 11.4436C13.8173 11.9926 13.2958 12.4205 12.6857 12.6732C12.0757 12.9259 11.4044 12.9921 10.7567 12.8632C10.1091 12.7344 9.51416 12.4164 9.04723 11.9495C8.5803 11.4826 8.26232 10.8877 8.13349 10.24C8.00466 9.59237 8.07078 8.92106 8.32348 8.31099C8.57618 7.70092 9.00412 7.17948 9.55317 6.81262C10.1022 6.44575 10.7477 6.24994 11.4081 6.24994C12.2935 6.24994 13.1428 6.6017 13.7689 7.22783C14.395 7.85396 14.7468 8.70318 14.7468 9.58867Z"
    fill="black" fill-opacity="0.3" />
  <path
    d="M20.7851 2.91121H17.6206C17.489 2.9105 17.359 2.88221 17.2389 2.82816C17.1189 2.77411 17.0115 2.6955 16.9237 2.59741C15.2721 0.75091 14.6535 0.119995 13.9797 0.119995H9.01329C8.33365 0.119995 7.6664 0.746781 6.01149 2.59741C5.92454 2.69462 5.818 2.77233 5.69887 2.82542C5.57974 2.87851 5.45072 2.90578 5.32029 2.90543H5.08246V2.44133C5.08203 2.31823 5.03288 2.20032 4.94576 2.11335C4.85864 2.02639 4.74063 1.97745 4.61754 1.97723H3.11044C2.98735 1.97767 2.86943 2.02682 2.78246 2.11394C2.6955 2.20106 2.64656 2.31906 2.64634 2.44216V2.90708H2.21032C1.71553 2.88865 1.2334 3.06586 0.868322 3.40033C0.503247 3.73481 0.284613 4.19962 0.259766 4.69413V14.9135C0.278955 15.422 0.490354 15.9044 0.851297 16.2632C1.21224 16.622 1.69585 16.8305 2.20453 16.8467H20.7851C21.2757 16.8233 21.7372 16.607 22.069 16.2449C22.4008 15.8828 22.576 15.4042 22.5565 14.9135V4.69413C22.5631 4.45916 22.522 4.22529 22.4355 4.00673C22.3489 3.78817 22.2189 3.58948 22.0532 3.42273C21.8876 3.25598 21.6897 3.12464 21.4717 3.03671C21.2537 2.94878 21.0201 2.90608 20.7851 2.91121ZM11.6402 14.5476C10.6396 14.5952 9.6481 14.3389 8.79588 13.8126C7.94366 13.2862 7.27063 12.5143 6.86523 11.5983C6.45984 10.6823 6.34104 9.66513 6.52445 8.68039C6.70786 7.69565 7.18491 6.78943 7.89289 6.08083C8.60087 5.37223 9.50667 4.8944 10.4913 4.71012C11.4758 4.52585 12.4931 4.64376 13.4095 5.04836C14.3258 5.45295 15.0983 6.12531 15.6254 6.97707C16.1525 7.82882 16.4096 8.82013 16.3629 9.82072C16.3042 11.0547 15.7879 12.2226 14.9148 13.0966C14.0416 13.9705 12.8741 14.4878 11.6402 14.5476ZM16.9823 6.27884C16.833 6.27884 16.6871 6.23458 16.563 6.15164C16.4388 6.0687 16.3421 5.95082 16.285 5.8129C16.2278 5.67498 16.2129 5.52322 16.242 5.37681C16.2711 5.23039 16.343 5.0959 16.4486 4.99034C16.5541 4.88479 16.6886 4.8129 16.8351 4.78378C16.9815 4.75465 17.1332 4.7696 17.2711 4.82673C17.4091 4.88386 17.5269 4.9806 17.6099 5.10472C17.6928 5.22885 17.7371 5.37478 17.7371 5.52406C17.7373 5.62324 17.7179 5.72149 17.6801 5.81316C17.6422 5.90483 17.5866 5.98813 17.5165 6.05826C17.4464 6.12839 17.3631 6.18398 17.2714 6.22183C17.1797 6.25969 17.0815 6.27906 16.9823 6.27884Z"
    fill="black" fill-opacity="0.3" />
</svg>
  