<?xml version="1.0" encoding="UTF-8"?>
<svg width="21" height="19" viewBox="0 0 21 19" fill="none" xmlns="http://www.w3.org/2000/svg">
  <path fill-rule="evenodd" clip-rule="evenodd"
    d="M4.35815 16.9966C4.35815 16.2073 5.02904 15.5684 5.85779 15.5684C6.67666 15.5684 7.34755 16.2073 7.34755 16.9966C7.34755 17.7765 6.67666 18.4154 5.85779 18.4154C5.02904 18.4154 4.35815 17.7765 4.35815 16.9966ZM15.4573 16.9966C15.4573 16.2073 16.1282 15.5684 16.9569 15.5684C17.7758 15.5684 18.4467 16.2073 18.4467 16.9966C18.4467 17.7765 17.7758 18.4154 16.9569 18.4154C16.1282 18.4154 15.4573 17.7765 15.4573 16.9966Z"
    fill="#FE4336" />
  <path fill-rule="evenodd" clip-rule="evenodd"
    d="M18.447 3.6169C19.0488 3.6169 19.4434 3.81422 19.8381 4.24645C20.2327 4.67867 20.3018 5.29882 20.213 5.86165L19.2757 12.0256C19.0981 13.2104 18.0326 14.0833 16.7796 14.0833H6.01582C4.70365 14.0833 3.61839 13.1249 3.50986 11.8855L2.60219 1.64276L1.11242 1.39846C0.717784 1.33269 0.441536 0.966239 0.510598 0.590391C0.57966 0.205147 0.964434 -0.0485496 1.36894 0.00782748L3.72198 0.34609C4.05742 0.403407 4.30407 0.665561 4.33367 0.985031L4.52113 3.08978C4.55072 3.39139 4.80724 3.6169 5.12295 3.6169H18.447ZM12.4683 8.50199H15.2012C15.6156 8.50199 15.9411 8.18252 15.9411 7.79728C15.9411 7.40264 15.6156 7.09256 15.2012 7.09256H12.4683C12.0539 7.09256 11.7284 7.40264 11.7284 7.79728C11.7284 8.18252 12.0539 8.50199 12.4683 8.50199Z"
    fill="#FE4336" />
</svg>
  