<?xml version="1.0" encoding="UTF-8"?>
<svg width="25" height="23" viewBox="0 0 25 23" fill="none" xmlns="http://www.w3.org/2000/svg">
  <mask id="path-1-outside-1_64_4911" maskUnits="userSpaceOnUse" x="4.3584" y="15.5684" width="19"
    height="7" fill="black">
    <rect fill="white" x="4.3584" y="15.5684" width="19" height="7" />
    <path fill-rule="evenodd" clip-rule="evenodd"
      d="M6.3584 18.9966C6.3584 18.2073 7.02929 17.5684 7.85803 17.5684C8.67691 17.5684 9.3478 18.2073 9.3478 18.9966C9.3478 19.7765 8.67691 20.4154 7.85803 20.4154C7.02929 20.4154 6.3584 19.7765 6.3584 18.9966ZM17.4575 18.9966C17.4575 18.2073 18.1284 17.5684 18.9572 17.5684C19.776 17.5684 20.4469 18.2073 20.4469 18.9966C20.4469 19.7765 19.776 20.4154 18.9572 20.4154C18.1284 20.4154 17.4575 19.7765 17.4575 18.9966Z" />
  </mask>
  <path fill-rule="evenodd" clip-rule="evenodd"
    d="M6.3584 18.9966C6.3584 18.2073 7.02929 17.5684 7.85803 17.5684C8.67691 17.5684 9.3478 18.2073 9.3478 18.9966C9.3478 19.7765 8.67691 20.4154 7.85803 20.4154C7.02929 20.4154 6.3584 19.7765 6.3584 18.9966ZM17.4575 18.9966C17.4575 18.2073 18.1284 17.5684 18.9572 17.5684C19.776 17.5684 20.4469 18.2073 20.4469 18.9966C20.4469 19.7765 19.776 20.4154 18.9572 20.4154C18.1284 20.4154 17.4575 19.7765 17.4575 18.9966Z"
    fill="white" />
  <path
    d="M7.85803 15.5684C6.01779 15.5684 4.3584 17.0119 4.3584 18.9966H8.3584C8.3584 19.4027 8.04078 19.5684 7.85803 19.5684V15.5684ZM11.3478 18.9966C11.3478 17.0203 9.69718 15.5684 7.85803 15.5684V19.5684C7.65663 19.5684 7.3478 19.3944 7.3478 18.9966H11.3478ZM7.85803 22.4154C9.6884 22.4154 11.3478 20.9719 11.3478 18.9966H7.3478C7.3478 18.5811 7.66541 18.4154 7.85803 18.4154V22.4154ZM4.3584 18.9966C4.3584 20.9803 6.02659 22.4154 7.85803 22.4154V18.4154C8.03199 18.4154 8.3584 18.5727 8.3584 18.9966H4.3584ZM18.9572 15.5684C17.1169 15.5684 15.4575 17.0119 15.4575 18.9966H19.4575C19.4575 19.4027 19.1399 19.5684 18.9572 19.5684V15.5684ZM22.4469 18.9966C22.4469 17.0203 20.7963 15.5684 18.9572 15.5684V19.5684C18.7558 19.5684 18.4469 19.3944 18.4469 18.9966H22.4469ZM18.9572 22.4154C20.7875 22.4154 22.4469 20.9719 22.4469 18.9966H18.4469C18.4469 18.5811 18.7645 18.4154 18.9572 18.4154V22.4154ZM15.4575 18.9966C15.4575 20.9803 17.1257 22.4154 18.9572 22.4154V18.4154C19.1311 18.4154 19.4575 18.5727 19.4575 18.9966H15.4575Z"
    fill="#747474" mask="url(#path-1-outside-1_64_4911)" />
  <mask id="path-3-outside-2_64_4911" maskUnits="userSpaceOnUse" x="-0.5" y="0" width="25"
    height="19" fill="black">
    <rect fill="white" x="-0.5" width="25" height="19" />
    <path fill-rule="evenodd" clip-rule="evenodd"
      d="M20.447 5.6169C21.0488 5.6169 21.4434 5.81422 21.8381 6.24645C22.2327 6.67867 22.3018 7.29882 22.213 7.86165L21.2757 14.0256C21.0981 15.2104 20.0326 16.0833 18.7796 16.0833H8.01582C6.70365 16.0833 5.61839 15.1249 5.50986 13.8855L4.60219 3.64276L3.11242 3.39846C2.71778 3.33269 2.44154 2.96624 2.5106 2.59039C2.57966 2.20515 2.96443 1.95145 3.36894 2.00783L5.72198 2.34609C6.05742 2.40341 6.30407 2.66556 6.33367 2.98503L6.52113 5.08978C6.55072 5.39139 6.80724 5.6169 7.12295 5.6169H20.447ZM14.4683 10.502H17.2012C17.6156 10.502 17.9411 10.1825 17.9411 9.79728C17.9411 9.40264 17.6156 9.09256 17.2012 9.09256H14.4683C14.0539 9.09256 13.7284 9.40264 13.7284 9.79728C13.7284 10.1825 14.0539 10.502 14.4683 10.502Z" />
  </mask>
  <path fill-rule="evenodd" clip-rule="evenodd"
    d="M20.447 5.6169C21.0488 5.6169 21.4434 5.81422 21.8381 6.24645C22.2327 6.67867 22.3018 7.29882 22.213 7.86165L21.2757 14.0256C21.0981 15.2104 20.0326 16.0833 18.7796 16.0833H8.01582C6.70365 16.0833 5.61839 15.1249 5.50986 13.8855L4.60219 3.64276L3.11242 3.39846C2.71778 3.33269 2.44154 2.96624 2.5106 2.59039C2.57966 2.20515 2.96443 1.95145 3.36894 2.00783L5.72198 2.34609C6.05742 2.40341 6.30407 2.66556 6.33367 2.98503L6.52113 5.08978C6.55072 5.39139 6.80724 5.6169 7.12295 5.6169H20.447ZM14.4683 10.502H17.2012C17.6156 10.502 17.9411 10.1825 17.9411 9.79728C17.9411 9.40264 17.6156 9.09256 17.2012 9.09256H14.4683C14.0539 9.09256 13.7284 9.40264 13.7284 9.79728C13.7284 10.1825 14.0539 10.502 14.4683 10.502Z"
    fill="white" />
  <path
    d="M22.213 7.86165L20.2374 7.54998L20.2357 7.56099L22.213 7.86165ZM21.2757 14.0256L19.2984 13.7249L19.2978 13.7291L21.2757 14.0256ZM5.50986 13.8855L7.50224 13.7111L7.50205 13.709L5.50986 13.8855ZM4.60219 3.64276L6.59438 3.46622L6.45739 1.92028L4.92584 1.66912L4.60219 3.64276ZM3.11242 3.39846L2.78363 5.37126L2.78877 5.3721L3.11242 3.39846ZM2.5106 2.59039L4.47768 2.95184L4.47922 2.9433L2.5106 2.59039ZM3.36894 2.00783L3.65353 0.02816L3.64502 0.0269737L3.36894 2.00783ZM5.72198 2.34609L6.05883 0.374662L6.03275 0.370206L6.00657 0.366441L5.72198 2.34609ZM6.33367 2.98503L8.3258 2.80761L8.32514 2.80053L6.33367 2.98503ZM6.52113 5.08978L4.52901 5.2672L4.52981 5.27615L4.53069 5.2851L6.52113 5.08978ZM23.3151 4.89791C22.9956 4.548 22.5912 4.20042 22.0606 3.95471C21.5228 3.7057 20.9759 3.6169 20.447 3.6169V7.6169C20.4883 7.6169 20.494 7.62031 20.475 7.61655C20.4655 7.61467 20.4514 7.61132 20.434 7.6057C20.4165 7.60006 20.3982 7.59295 20.3799 7.58447C20.3414 7.56664 20.3175 7.54951 20.3107 7.54424C20.3061 7.54066 20.3225 7.55268 20.3611 7.59499L23.3151 4.89791ZM24.1886 8.17332C24.3236 7.31714 24.2912 5.96701 23.3151 4.89791L20.3611 7.59499C20.3171 7.54678 20.2872 7.4984 20.2686 7.4592C20.2508 7.42153 20.2457 7.39766 20.2451 7.39469C20.2446 7.39214 20.2473 7.40496 20.2474 7.43476C20.2474 7.46433 20.2448 7.50338 20.2374 7.54998L24.1886 8.17332ZM23.253 14.3262L24.1903 8.16231L20.2357 7.56099L19.2985 13.7249L23.253 14.3262ZM18.7796 18.0833C20.9425 18.0833 22.9177 16.5633 23.2536 14.322L19.2978 13.7291C19.2786 13.8576 19.1227 14.0833 18.7796 14.0833V18.0833ZM8.01582 18.0833H18.7796V14.0833H8.01582V18.0833ZM3.51749 14.06C3.72293 16.4062 5.74246 18.0833 8.01582 18.0833V14.0833C7.66483 14.0833 7.51385 13.8437 7.50224 13.7111L3.51749 14.06ZM2.61 3.8193L3.51767 14.0621L7.50205 13.709L6.59438 3.46622L2.61 3.8193ZM2.78877 5.3721L4.27854 5.6164L4.92584 1.66912L3.43607 1.42482L2.78877 5.3721ZM0.543531 2.22894C0.252191 3.81446 1.40084 5.14079 2.78363 5.37125L3.44122 1.42568C4.03473 1.52459 4.63088 2.11801 4.47767 2.95184L0.543531 2.22894ZM3.64502 0.0269737C2.30815 -0.159349 0.823221 0.668655 0.541981 2.23748L4.47922 2.9433C4.3361 3.74164 3.62072 4.06225 3.09286 3.98868L3.64502 0.0269737ZM6.00657 0.366441L3.65353 0.0281783L3.08435 3.98748L5.43739 4.32574L6.00657 0.366441ZM8.32514 2.80053C8.20768 1.53271 7.23944 0.57639 6.05883 0.374662L5.38512 4.31752C4.87541 4.23042 4.40046 3.79841 4.3422 3.16953L8.32514 2.80053ZM8.51324 4.91235L8.32579 2.80761L4.34156 3.16245L4.52901 5.2672L8.51324 4.91235ZM7.12295 3.6169C7.77581 3.6169 8.43489 4.1131 8.51156 4.89445L4.53069 5.2851C4.66656 6.66969 5.83867 7.6169 7.12295 7.6169V3.6169ZM20.447 3.6169H7.12295V7.6169H20.447V3.6169ZM17.2012 8.50199H14.4683V12.502H17.2012V8.50199ZM15.9411 9.79728C15.9411 9.00409 16.5863 8.50199 17.2012 8.50199V12.502C18.6448 12.502 19.9411 11.3609 19.9411 9.79728H15.9411ZM17.2012 11.0926C16.6041 11.0926 15.9411 10.598 15.9411 9.79728H19.9411C19.9411 8.20723 18.627 7.09256 17.2012 7.09256V11.0926ZM14.4683 11.0926H17.2012V7.09256H14.4683V11.0926ZM15.7284 9.79728C15.7284 10.598 15.0654 11.0926 14.4683 11.0926V7.09256C13.0424 7.09256 11.7284 8.20723 11.7284 9.79728H15.7284ZM14.4683 8.50199C15.0832 8.50199 15.7284 9.00409 15.7284 9.79728H11.7284C11.7284 11.3609 13.0247 12.502 14.4683 12.502V8.50199Z"
    fill="#747474" mask="url(#path-3-outside-2_64_4911)" />
</svg>
  