<?xml version="1.0" encoding="UTF-8"?>
<svg width="7" height="12" viewBox="0 0 7 12" fill="none" xmlns="http://www.w3.org/2000/svg">
  <path
    d="M6.36634 0.279229C6.1863 0.100378 5.94283 0 5.68906 0C5.43529 0 5.19182 0.100378 5.01178 0.279229L0.27954 5.02649C0.105859 5.20045 0.00583976 5.43461 0.000247726 5.68037C-0.00534431 5.92612 0.0839199 6.16459 0.249509 6.34627L4.91221 11.024C5.00079 11.1129 5.10602 11.1835 5.22189 11.2318C5.33776 11.2801 5.462 11.3051 5.58753 11.3053C5.71305 11.3056 5.8374 11.2811 5.95347 11.2333C6.06954 11.1855 6.17505 11.1153 6.264 11.0268C6.35294 10.9382 6.42356 10.8329 6.47183 10.7171C6.52011 10.6012 6.54509 10.477 6.54534 10.3514C6.5456 10.2259 6.52113 10.1016 6.47333 9.98549C6.42553 9.86942 6.35534 9.7639 6.26676 9.67496L2.30821 5.65635L6.37108 1.63378C6.4599 1.54463 6.53025 1.43883 6.57809 1.32244C6.62594 1.20605 6.65034 1.08136 6.6499 0.955521C6.64946 0.829681 6.62419 0.705165 6.57553 0.589113C6.52687 0.47306 6.45578 0.367753 6.36634 0.279229Z"
    fill="#FF4334" />
</svg>
  