<?xml version="1.0" encoding="UTF-8"?>
<svg width="7" height="12" viewBox="0 0 7 12" fill="none" xmlns="http://www.w3.org/2000/svg">
  <path
    d="M0.284053 11.0261C0.464087 11.2049 0.707557 11.3053 0.961329 11.3053C1.2151 11.3053 1.45857 11.2049 1.63861 11.0261L6.37085 6.27881C6.54453 6.10485 6.64455 5.87069 6.65014 5.62493C6.65573 5.37918 6.56647 5.14071 6.40088 4.95903L1.73818 0.281314C1.6496 0.192372 1.54437 0.121749 1.4285 0.0734749C1.31263 0.0252008 1.18839 0.000222206 1.06286 -3.43323e-05C0.937336 -0.000290871 0.812989 0.0241795 0.696921 0.0719786C0.580853 0.119778 0.475336 0.18997 0.386395 0.278547C0.297454 0.367126 0.22683 0.472354 0.178556 0.588226C0.130282 0.704098 0.105304 0.828343 0.105047 0.953868C0.10479 1.07939 0.12926 1.20374 0.177059 1.31981C0.224858 1.43588 0.295051 1.54139 0.383629 1.63033L4.34218 5.64895L0.279311 9.67152C0.190493 9.76066 0.120144 9.86647 0.072298 9.98286C0.0244522 10.0992 5.00679e-05 10.2239 0.000490665 10.3498C0.000931263 10.4756 0.0262055 10.6001 0.0748649 10.7162C0.123525 10.8322 0.194613 10.9375 0.284053 11.0261Z"
    fill="#FF4334" />
</svg>
  