<?xml version="1.0" encoding="UTF-8"?>
<svg width="24" height="24" viewBox="0 0 24 24" fill="none" xmlns="http://www.w3.org/2000/svg">
  <mask id="path-1-outside-1_32_10610" maskUnits="userSpaceOnUse" x="0" y="0" width="24" height="24"
    fill="black">
    <rect fill="white" width="24" height="24" />
    <path fill-rule="evenodd" clip-rule="evenodd"
      d="M12 22C17.5228 22 22 17.5228 22 12C22 6.47715 17.5228 2 12 2C6.47715 2 2 6.47715 2 12C2 17.5228 6.47715 22 12 22ZM10.4617 9.83333C10.4617 10.4667 10.8939 10.8733 12.2299 11.2667C13.5658 11.66 15 12.3067 15 14.2C15 15.5667 14.0864 16.32 12.9371 16.5667V18H11.169V16.5556C10.0373 16.2822 9.07073 15.4622 9 14.0022H10.2967C10.3615 14.7889 10.8389 15.4022 12.053 15.4022C13.3556 15.4022 13.6444 14.6689 13.6444 14.2089C13.6444 13.5889 13.3497 13.0022 11.8762 12.6022C10.2318 12.1533 9.10609 11.3867 9.10609 9.84667C9.10609 8.56 10.0255 7.72 11.169 7.44V6H12.9371V7.46C13.4607 7.57734 13.9333 7.89281 14.2772 8.35448C14.621 8.81615 14.8157 9.3965 14.8291 10H13.5265C13.4912 9.16667 13.1022 8.6 12.053 8.6C11.057 8.6 10.4617 9.10667 10.4617 9.83333Z" />
  </mask>
  <path
    d="M12.2299 11.2667L12.7947 9.34809L12.7947 9.34809L12.2299 11.2667ZM12.9371 16.5667L12.5174 14.6112L10.9371 14.9504V16.5667H12.9371ZM12.9371 18V20H14.9371V18H12.9371ZM11.169 18H9.16896V20H11.169V18ZM11.169 16.5556H13.169V14.9811L11.6385 14.6115L11.169 16.5556ZM9 14.0022V12.0022H6.90077L7.00234 14.099L9 14.0022ZM10.2967 14.0022L12.2899 13.8379L12.1386 12.0022H10.2967V14.0022ZM11.8762 12.6022L11.3495 14.5316L11.3523 14.5324L11.8762 12.6022ZM11.169 7.44L11.6447 9.3826L13.169 9.00933V7.44H11.169ZM11.169 6V4H9.16896V6H11.169ZM12.9371 6H14.9371V4H12.9371V6ZM12.9371 7.46H10.9371V9.06137L12.4997 9.41158L12.9371 7.46ZM14.2772 8.35448L12.6732 9.5492L12.6732 9.5492L14.2772 8.35448ZM14.8291 10V12H16.8739L16.8286 9.95564L14.8291 10ZM13.5265 10L11.5283 10.0848L11.6096 12H13.5265V10ZM20 12C20 16.4183 16.4183 20 12 20V24C18.6274 24 24 18.6274 24 12H20ZM12 4C16.4183 4 20 7.58172 20 12H24C24 5.37258 18.6274 0 12 0V4ZM4 12C4 7.58172 7.58172 4 12 4V0C5.37258 0 0 5.37258 0 12H4ZM12 20C7.58172 20 4 16.4183 4 12H0C0 18.6274 5.37258 24 12 24V20ZM12.7947 9.34809C12.5164 9.26615 12.3322 9.19697 12.2144 9.14366C12.0941 9.0892 12.0851 9.07008 12.1278 9.10573C12.1816 9.15073 12.2859 9.25705 12.3668 9.43266C12.4472 9.60745 12.4617 9.75794 12.4617 9.83333H8.46169C8.46169 10.7256 8.81964 11.5536 9.56182 12.1743C10.164 12.6778 10.9352 12.9704 11.665 13.1852L12.7947 9.34809ZM17 14.2C17 12.6563 16.376 11.4685 15.4125 10.6481C14.5498 9.91347 13.5125 9.55941 12.7947 9.34809L11.665 13.1852C12.2832 13.3673 12.6309 13.5332 12.8193 13.6936C12.8926 13.756 12.9237 13.8034 12.9425 13.8436C12.9612 13.8837 13 13.986 13 14.2H17ZM13.3568 18.5221C14.2176 18.3374 15.131 17.934 15.8467 17.1839C16.5939 16.4006 17 15.3673 17 14.2H13C13 14.3158 12.9813 14.3712 12.9751 14.3874C12.9692 14.4023 12.9637 14.411 12.9524 14.4228C12.924 14.4526 12.806 14.5493 12.5174 14.6112L13.3568 18.5221ZM14.9371 18V16.5667H10.9371V18H14.9371ZM11.169 20H12.9371V16H11.169V20ZM9.16896 16.5556V18H13.169V16.5556H9.16896ZM7.00234 14.099C7.12497 16.6304 8.8991 18.0648 10.6994 18.4996L11.6385 14.6115C11.3806 14.5492 11.2287 14.4452 11.1515 14.3622C11.0945 14.3009 11.0112 14.1847 10.9977 13.9054L7.00234 14.099ZM10.2967 12.0022H9V16.0022H10.2967V12.0022ZM12.053 13.4022C11.7725 13.4022 11.8865 13.3346 12.0829 13.5116C12.1729 13.5928 12.231 13.6842 12.2629 13.7577C12.2919 13.8248 12.2916 13.8587 12.2899 13.8379L8.30342 14.1665C8.36492 14.9128 8.64581 15.7987 9.40486 16.4828C10.1596 17.1631 11.1195 17.4022 12.053 17.4022V13.4022ZM11.6444 14.2089C11.6444 14.0539 11.6906 13.8017 11.9058 13.5812C12.1461 13.335 12.3258 13.4022 12.053 13.4022V17.4022C13.0829 17.4022 14.0582 17.1028 14.7686 16.3749C15.4538 15.6728 15.6444 14.8239 15.6444 14.2089H11.6444ZM11.3523 14.5324C11.6229 14.6058 11.7791 14.672 11.8584 14.7129C11.9355 14.7526 11.9139 14.7548 11.856 14.6933C11.7901 14.6233 11.7241 14.5204 11.6825 14.3984C11.6444 14.2868 11.6444 14.2108 11.6444 14.2089H15.6444C15.6444 13.5374 15.466 12.6931 14.7697 11.9528C14.1495 11.2934 13.3 10.9163 12.4002 10.6721L11.3523 14.5324ZM7.10609 9.84667C7.10609 11.1825 7.62713 12.298 8.53323 13.1172C9.35891 13.8637 10.4016 14.2729 11.3495 14.5316L12.4029 10.6728C11.7065 10.4827 11.3641 10.2841 11.2158 10.15C11.157 10.0969 11.1415 10.0654 11.1355 10.0519C11.1294 10.0382 11.1061 9.98205 11.1061 9.84667H7.10609ZM10.6933 5.4974C8.92303 5.93089 7.10609 7.3887 7.10609 9.84667H11.1061C11.1061 9.76735 11.1194 9.72309 11.1283 9.70048C11.1377 9.67684 11.1527 9.65032 11.1816 9.61881C11.2445 9.55043 11.3894 9.4451 11.6447 9.3826L10.6933 5.4974ZM9.16896 6V7.44H13.169V6H9.16896ZM12.9371 4H11.169V8H12.9371V4ZM14.9371 7.46V6H10.9371V7.46H14.9371ZM15.8811 7.15976C15.274 6.34468 14.4005 5.73836 13.3745 5.50842L12.4997 9.41158C12.5208 9.41631 12.5926 9.44093 12.6732 9.5492L15.8811 7.15976ZM16.8286 9.95564C16.8065 8.95837 16.4856 7.97131 15.8811 7.15976L12.6732 9.5492C12.7565 9.66099 12.8249 9.83464 12.8296 10.0444L16.8286 9.95564ZM13.5265 12H14.8291V8H13.5265V12ZM12.053 10.6C12.1401 10.6 12.1242 10.6123 12.0461 10.5843C11.9571 10.5524 11.8325 10.4838 11.7178 10.3627C11.4902 10.1224 11.5214 9.92251 11.5283 10.0848L15.5247 9.9152C15.4962 9.24416 15.3153 8.34429 14.6221 7.61228C13.8965 6.84614 12.9336 6.6 12.053 6.6V10.6ZM12.4617 9.83333C12.4617 9.92912 12.4409 10.0579 12.3756 10.1948C12.31 10.3324 12.2187 10.4379 12.1292 10.5092C11.9571 10.6461 11.8747 10.6 12.053 10.6V6.6C11.2353 6.6 10.3573 6.80723 9.63852 7.37918C8.87818 7.98422 8.46169 8.87372 8.46169 9.83333H12.4617Z"
    fill="#FF4334" mask="url(#path-1-outside-1_32_10610)" />
</svg>
  