<?xml version="1.0" encoding="UTF-8"?>
<svg width="24" height="25" viewBox="0 0 24 25" fill="none" xmlns="http://www.w3.org/2000/svg">
  <path
    d="M11 4.66663H4C3.46957 4.66663 2.96086 4.87734 2.58579 5.25241C2.21071 5.62749 2 6.13619 2 6.66663V20.6666C2 21.1971 2.21071 21.7058 2.58579 22.0808C2.96086 22.4559 3.46957 22.6666 4 22.6666H18C18.5304 22.6666 19.0391 22.4559 19.4142 22.0808C19.7893 21.7058 20 21.1971 20 20.6666V13.6666"
    stroke="#FE4435" stroke-width="2" stroke-linecap="round" stroke-linejoin="round" />
  <path
    d="M18.5 3.16664C18.8978 2.76881 19.4374 2.54532 20 2.54532C20.5626 2.54532 21.1022 2.76881 21.5 3.16664C21.8978 3.56446 22.1213 4.10403 22.1213 4.66664C22.1213 5.22925 21.8978 5.76881 21.5 6.16664L12 15.6666L8 16.6666L9 12.6666L18.5 3.16664Z"
    stroke="#FE4435" stroke-width="2" stroke-linecap="round" stroke-linejoin="round" />
</svg>
  