<?xml version="1.0" encoding="UTF-8"?>
<svg width="25" height="25" viewBox="0 0 25 25" fill="none" xmlns="http://www.w3.org/2000/svg">
  <g clip-path="url(#clip0_28_2401)">
    <path
      d="M12.5 25C19.4036 25 25 19.4036 25 12.5C25 5.59647 19.4036 3.05176e-05 12.5 3.05176e-05C5.59644 3.05176e-05 0 5.59647 0 12.5C0 19.4036 5.59644 25 12.5 25Z"
      fill="#3C5A9A" />
    <path
      d="M15.9881 5H13.2711C11.6587 5 9.86529 5.63822 9.86529 7.83785C9.87316 8.60429 9.86529 9.33831 9.86529 10.1644H8V12.9579H9.92302V21H13.4567V12.9049H15.789L16 10.1566H13.3958C13.3958 10.1566 13.4016 8.934 13.3958 8.57897C13.3958 7.70972 14.3568 7.7595 14.4146 7.7595C14.8719 7.7595 15.7612 7.76076 15.9894 7.7595V5H15.9881Z"
      fill="white" />
  </g>
  <defs>
    <clipPath id="clip0_28_2401">
      <rect width="25" height="25" fill="white" />
    </clipPath>
  </defs>
</svg>
  