<?xml version="1.0" encoding="UTF-8"?>
<svg width="24" height="24" viewBox="0 0 24 24" fill="none" xmlns="http://www.w3.org/2000/svg">
  <path
    d="M12.2305 6.30528L12.2494 6.306H12.2684C13.1584 6.306 14.1107 6.65955 14.8327 7.25627C15.5504 7.84943 15.9658 8.6144 15.965 9.41787V9.41885C15.965 9.99947 15.813 10.3867 15.6159 10.6746C15.4075 10.9788 15.1112 11.2265 14.7439 11.4647C14.5613 11.5831 14.376 11.69 14.1774 11.8047L14.1722 11.8076L14.1663 11.8111C13.9783 11.9196 13.7635 12.0436 13.5716 12.1743C13.3083 12.3539 12.8531 12.6968 12.6802 13.2548H11.4164C11.5594 12.5087 12.1755 12.1385 13.0771 11.6332C13.4611 11.418 13.9002 11.1702 14.2298 10.8642C14.6098 10.5116 14.9004 10.0327 14.9004 9.39075C14.9004 8.5248 14.3471 7.92232 13.8327 7.5882C13.3106 7.24908 12.6603 7.06205 12.0579 7.06205C11.3226 7.06205 10.72 7.24768 10.1861 7.62336C9.84192 7.86558 9.54811 8.17399 9.2809 8.49196L8.66635 8.02625C9.03076 7.52976 9.5005 7.11753 10.0438 6.8203C10.7128 6.45433 11.4685 6.27636 12.2305 6.30528ZM21.1465 18.1108C22.3551 16.3018 23.0001 14.175 23 11.9994L11.9999 1C9.82434 1.00001 7.6976 1.64517 5.88867 2.85388C4.07971 4.0626 2.66981 5.7806 1.83727 7.79063C1.00472 9.80065 0.786924 12.0124 1.21141 14.1462C1.6359 16.28 2.68361 18.24 4.22205 19.7784C5.76049 21.3167 7.72056 22.3643 9.8544 22.7887C11.9882 23.2131 14.2 22.9951 16.21 22.1625C18.2199 21.3298 19.9379 19.9198 21.1465 18.1108ZM23 11.9994C23 10.5549 22.7155 9.12452 22.1627 7.78998C21.6098 6.45543 20.7996 5.24283 19.7781 4.22143C18.7567 3.20003 17.544 2.38984 16.2094 1.8371C14.8749 1.28437 13.4445 0.999925 12 1L23 11.9994ZM11.5252 16.45C11.6656 16.3562 11.8306 16.3061 11.9995 16.306C12.2261 16.3065 12.4433 16.3967 12.6036 16.557C12.7639 16.7172 12.8541 16.9345 12.8546 17.1611C12.8545 17.3299 12.8044 17.495 12.7106 17.6353C12.6166 17.7759 12.4832 17.8854 12.327 17.9501C12.1709 18.0148 11.9991 18.0317 11.8333 17.9987C11.6675 17.9657 11.5152 17.8843 11.3957 17.7648C11.2762 17.6453 11.1948 17.4931 11.1619 17.3273C11.1289 17.1615 11.1458 16.9897 11.2105 16.8335C11.2752 16.6774 11.3847 16.5439 11.5252 16.45Z"
    stroke="#FF4334" stroke-width="2" />
</svg>
  