<?xml version="1.0" encoding="UTF-8"?>
<svg width="20" height="17" viewBox="0 0 20 17" fill="none" xmlns="http://www.w3.org/2000/svg">
  <path opacity="0.4"
    d="M7.72964 12.391H1.4418C0.645996 12.391 0 13.0257 0 13.8075C0 14.5883 0.645996 15.2241 1.4418 15.2241H7.72964C8.52545 15.2241 9.17145 14.5883 9.17145 13.8075C9.17145 13.0257 8.52545 12.391 7.72964 12.391Z"
    fill="#9A9A9A" />
  <path opacity="0.4"
    d="M19.125 3.23075C19.125 2.44994 18.479 1.81528 17.6842 1.81528H11.3964C10.6006 1.81528 9.95459 2.44994 9.95459 3.23075C9.95459 4.0126 10.6006 4.64727 11.3964 4.64727H17.6842C18.479 4.64727 19.125 4.0126 19.125 3.23075Z"
    fill="#9A9A9A" />
  <path
    d="M6.57684 3.23075C6.57684 5.01575 5.10528 6.46254 3.28842 6.46254C1.47262 6.46254 0 5.01575 0 3.23075C0 1.44679 1.47262 0 3.28842 0C5.10528 0 6.57684 1.44679 6.57684 3.23075Z"
    fill="#9A9A9A" />
  <path
    d="M19.1249 13.7692C19.1249 15.5532 17.6534 17 15.8365 17C14.0207 17 12.5481 15.5532 12.5481 13.7692C12.5481 11.9842 14.0207 10.5374 15.8365 10.5374C17.6534 10.5374 19.1249 11.9842 19.1249 13.7692Z"
    fill="#9A9A9A" />
</svg>
  