<?xml version="1.0" encoding="UTF-8"?>
<svg width="24" height="24" viewBox="0 0 24 24" fill="none" xmlns="http://www.w3.org/2000/svg">
  <path
    d="M12.5925 13L10.2919 15.29C10.1982 15.383 10.1238 15.4936 10.073 15.6155C10.0222 15.7373 9.99608 15.868 9.99608 16C9.99608 16.132 10.0222 16.2627 10.073 16.3846C10.1238 16.5065 10.1982 16.6171 10.2919 16.71C10.3849 16.8038 10.4956 16.8781 10.6174 16.9289C10.7393 16.9797 10.8701 17.0058 11.0021 17.0058C11.1342 17.0058 11.2649 16.9797 11.3868 16.9289C11.5087 16.8781 11.6193 16.8038 11.7123 16.71L15.7132 12.71C15.8043 12.6149 15.8757 12.5028 15.9233 12.38C16.0233 12.1366 16.0233 11.8635 15.9233 11.6201C15.8757 11.4973 15.8043 11.3852 15.7132 11.2901L11.7123 7.29007C11.619 7.19683 11.5083 7.12287 11.3865 7.07241C11.2646 7.02195 11.134 6.99598 11.0021 6.99598C10.8702 6.99598 10.7396 7.02195 10.6178 7.07241C10.4959 7.12287 10.3852 7.19683 10.2919 7.29007C10.1987 7.38331 10.1247 7.494 10.0742 7.61582C10.0238 7.73764 9.99779 7.86821 9.99779 8.00007C9.99779 8.13193 10.0238 8.2625 10.0742 8.38432C10.1247 8.50614 10.1987 8.61683 10.2919 8.71007L12.5925 11.0001H3.00023C2.73496 11.0001 2.48054 11.1054 2.29296 11.2929C2.10538 11.4805 2 11.7348 2 12C2 12.2653 2.10538 12.5196 2.29296 12.7072C2.48054 12.8947 2.73496 13 3.00023 13H12.5925ZM12.0023 2.0001C10.133 1.99176 8.29872 2.50731 6.70757 3.48828C5.11642 4.46926 3.83208 5.87639 3.00023 7.55007C2.88086 7.78877 2.86122 8.06509 2.94563 8.31827C3.03004 8.57144 3.21159 8.78072 3.45034 8.90006C3.68909 9.01941 3.96548 9.03905 4.21872 8.95466C4.47195 8.87027 4.68128 8.68876 4.80066 8.45007C5.433 7.17339 6.39486 6.0887 7.58686 5.30807C8.77886 4.52744 10.1577 4.07921 11.581 4.00968C13.0043 3.94016 14.4203 4.25186 15.6827 4.9126C16.9452 5.57333 18.0082 6.55911 18.762 7.76807C19.5159 8.97703 19.9331 10.3653 19.9706 11.7894C20.0081 13.2136 19.6646 14.6219 18.9755 15.8688C18.2864 17.1158 17.2767 18.1562 16.0508 18.8824C14.8249 19.6087 13.4273 19.9945 12.0023 20C10.5109 20.0065 9.04781 19.5924 7.78105 18.8053C6.51429 18.0182 5.49517 16.8899 4.84067 15.55C4.72129 15.3113 4.51196 15.1298 4.25873 15.0454C4.00549 14.961 3.7291 14.9807 3.49035 15.1C3.2516 15.2194 3.07005 15.4287 2.98564 15.6818C2.90123 15.935 2.92087 16.2113 3.04024 16.45C3.83326 18.0455 5.03823 19.4002 6.53053 20.3741C8.02283 21.3479 9.74827 21.9054 11.5284 21.989C13.3084 22.0726 15.0786 21.6792 16.6556 20.8495C18.2326 20.0198 19.5593 18.784 20.4984 17.2698C21.4375 15.7557 21.955 14.0182 21.9972 12.2371C22.0394 10.4559 21.6049 8.69586 20.7386 7.13891C19.8724 5.58195 18.6057 4.28465 17.0698 3.3812C15.5339 2.47774 13.7844 2.00094 12.0023 2.0001Z"
    fill="#FF4334" />
</svg>
  