<?xml version="1.0" encoding="UTF-8"?>
<svg width="24" height="24" viewBox="0 0 24 24" fill="none" xmlns="http://www.w3.org/2000/svg">
  <path
    d="M10.9677 12.0229C11.2902 12.1765 11.6429 12.2561 12 12.2561C12.3572 12.2561 12.7098 12.1765 13.0323 12.0229L22.0001 7.7728V6.66258C21.9996 6.22179 21.8242 5.7992 21.5126 5.48751C21.2009 5.17583 20.7783 5.0005 20.3375 5H3.66255C3.22176 5.0005 2.79917 5.17583 2.48749 5.48752C2.17581 5.79921 2.00049 6.22181 2 6.6626V7.77282L10.9677 12.0229Z"
    fill="#CCCCCC" />
  <path
    d="M16.2466 13.8317C16.1566 13.7557 16.1005 13.6471 16.0906 13.5298C16.0806 13.4125 16.1176 13.296 16.1934 13.206C16.2692 13.1159 16.3777 13.0596 16.495 13.0494C16.6123 13.0392 16.7288 13.0759 16.8191 13.1516L21.846 18.2701C21.9473 18.0525 21.9998 17.8155 22.0001 17.5755V8.75365L13.4119 12.8239C12.9708 13.0339 12.4885 13.1428 12 13.1428C11.5116 13.1428 11.0292 13.0339 10.5882 12.8239L2 8.75365V17.5755C2.00023 17.8155 2.05279 18.0525 2.15403 18.2701L7.181 13.1516C7.27124 13.0761 7.38775 13.0394 7.50497 13.0496C7.6222 13.0599 7.73059 13.1162 7.80637 13.2062C7.88214 13.2962 7.91913 13.4126 7.90922 13.5299C7.89931 13.6471 7.8433 13.7557 7.75349 13.8317L2.72765 18.9492C3.00298 19.1377 3.3289 19.2384 3.66254 19.2381H20.3375C20.6712 19.2384 20.9971 19.1377 21.2724 18.9492L16.2466 13.8317Z"
    fill="#CCCCCC" />
</svg>
  