<?xml version="1.0" encoding="UTF-8"?>
<svg width="20" height="21" viewBox="0 0 20 21" fill="none" xmlns="http://www.w3.org/2000/svg">
  <path
    d="M15.2499 6.69995C15.2499 5.18823 14.6493 3.73842 13.5804 2.66948C12.5114 1.60053 11.0616 1 9.54992 1C8.0382 1 6.5884 1.60053 5.51945 2.66948C4.4505 3.73842 3.84997 5.18823 3.84997 6.69995C3.84997 13.3499 1 15.2499 1 15.2499H18.0998C18.0998 15.2499 15.2499 13.3499 15.2499 6.69995Z"
    stroke="#FF4334" stroke-width="2" stroke-linecap="round" stroke-linejoin="round" />
  <path
    d="M11.1932 19.0498C11.0262 19.3378 10.7865 19.5767 10.498 19.7429C10.2096 19.909 9.88259 19.9965 9.54973 19.9965C9.21688 19.9965 8.88986 19.909 8.60143 19.7429C8.313 19.5767 8.07327 19.3378 7.90625 19.0498"
    stroke="#FF4334" stroke-width="2" stroke-linecap="round" stroke-linejoin="round" />
</svg>
  