<?xml version="1.0" encoding="UTF-8"?>
<svg width="24" height="24" viewBox="0 0 24 24" fill="none" xmlns="http://www.w3.org/2000/svg">
  <path
    d="M19.5379 4H16.9236C16.8007 4 16.6834 4.04898 16.5965 4.13492L10.6471 10.0843C8.85988 9.50583 6.825 9.98637 5.48874 11.3226C4.52859 12.2828 4 13.559 4 14.9165C4 16.2749 4.52859 17.5511 5.48874 18.5113C6.44889 19.4714 7.72415 19.9991 9.08259 20C10.4401 20 11.7163 19.4714 12.6764 18.5113C14.0303 17.1574 14.4997 15.1623 13.9138 13.3529L14.6365 12.6302C14.6873 12.5794 14.7252 12.5175 14.7483 12.45L15.3286 10.709L17.0697 10.1287C17.2073 10.0825 17.3164 9.97436 17.3617 9.83666L17.942 8.09565L19.684 7.51438C19.8725 7.45154 20 7.27411 20 7.07543V4.46205C20 4.207 19.793 4 19.5379 4ZM10.0621 15.8979C9.53818 16.4209 8.62516 16.4209 8.10211 15.8979C7.56151 15.3573 7.56151 14.4775 8.10211 13.9369C8.36364 13.6754 8.71203 13.5322 9.08259 13.5322C9.45224 13.5322 9.80062 13.6754 10.0621 13.9369C10.3237 14.1985 10.4678 14.5468 10.4678 14.9183C10.4688 15.288 10.3237 15.6364 10.0621 15.8979Z"
    fill="#CCCCCC" />
</svg>
  