<?xml version="1.0" encoding="UTF-8"?>
<svg width="19" height="19" viewBox="0 0 19 19" fill="none" xmlns="http://www.w3.org/2000/svg">
  <path
    d="M17.5091 1H14.7314C14.6008 1 14.4761 1.05204 14.3838 1.14335L8.06255 7.4646C6.16362 6.84995 4.00156 7.36052 2.58178 8.78029C1.56163 9.80045 1 11.1564 1 12.5988C1 14.0421 1.56163 15.3981 2.58178 16.4182C3.60194 17.4384 4.95691 17.999 6.40025 18C7.84261 18 9.19857 17.4384 10.2187 16.4182C11.6572 14.9798 12.1559 12.8599 11.5334 10.9375L12.3013 10.1696C12.3553 10.1156 12.3955 10.0498 12.4201 9.97817L13.0367 8.12834L14.8865 7.51173C15.0328 7.46263 15.1487 7.34775 15.1968 7.20146L15.8134 5.35162L17.6642 4.73403C17.8645 4.66726 18 4.47875 18 4.26764V1.49093C18 1.21994 17.7801 1 17.5091 1ZM7.44103 13.6415C6.88431 14.1972 5.91423 14.1972 5.3585 13.6415C4.78411 13.0671 4.78411 12.1324 5.3585 11.558C5.63636 11.2801 6.00653 11.1279 6.40025 11.1279C6.793 11.1279 7.16316 11.2801 7.44103 11.558C7.7189 11.8359 7.87207 12.206 7.87207 12.6007C7.87305 12.9935 7.7189 13.3636 7.44103 13.6415Z"
    stroke="#FF4334" stroke-width="2" />
</svg>
  