<?xml version="1.0" encoding="UTF-8"?>
<svg width="24" height="24" viewBox="0 0 24 24" fill="none" xmlns="http://www.w3.org/2000/svg">
  <g clip-path="url(#clip0_64_4959)">
    <path
      d="M9.6665 11C11.8756 11 13.6665 9.20914 13.6665 7C13.6665 4.79086 11.8756 3 9.6665 3C7.45737 3 5.6665 4.79086 5.6665 7C5.6665 9.20914 7.45737 11 9.6665 11Z"
      fill="#FF4334" />
    <path fill-rule="evenodd" clip-rule="evenodd"
      d="M12.394 11.5833C13.1267 11.912 13.8013 12.3733 14.3807 12.9527C15.6307 14.2027 16.3333 15.8987 16.3333 17.6667V18.3333C16.3333 18.7013 16.0347 19 15.6667 19H3.66667C3.29867 19 3 18.7013 3 18.3333C3 18.3333 3 18.078 3 17.6667C3 15.8987 3.70267 14.2027 4.95267 12.9527C5.532 12.3733 6.20667 11.912 6.93933 11.5833C7.738 12.06 8.67067 12.3333 9.66667 12.3333C10.6627 12.3333 11.5953 12.06 12.394 11.5833Z"
      fill="#FF4334" />
    <path
      d="M16.6665 15.5C19.1518 15.5 21.1665 13.4853 21.1665 11C21.1665 8.51472 19.1518 6.5 16.6665 6.5C14.1812 6.5 12.1665 8.51472 12.1665 11C12.1665 13.4853 14.1812 15.5 16.6665 15.5Z"
      fill="#FF4334" stroke="white" />
    <path
      d="M19.5986 15.1271L19.3612 15.0206L19.1378 15.154C18.4144 15.5857 17.57 15.8333 16.6667 15.8333C15.7634 15.8333 14.9189 15.5857 14.1956 15.154L13.9721 15.0206L13.7347 15.1271C12.9472 15.4804 12.2219 15.9763 11.5991 16.5991C10.2554 17.9429 9.5 19.766 9.5 21.6667V21.6691V21.6715V21.6739V21.6763V21.6787V21.6811V21.6834V21.6858V21.6882V21.6906V21.693V21.6953V21.6977V21.7001V21.7024V21.7048V21.7071V21.7095V21.7118V21.7141V21.7165V21.7188V21.7211V21.7235V21.7258V21.7281V21.7304V21.7327V21.735V21.7373V21.7396V21.7419V21.7442V21.7465V21.7488V21.7511V21.7534V21.7556V21.7579V21.7602V21.7624V21.7647V21.7669V21.7692V21.7714V21.7737V21.7759V21.7782V21.7804V21.7826V21.7848V21.7871V21.7893V21.7915V21.7937V21.7959V21.7981V21.8003V21.8025V21.8047V21.8069V21.8091V21.8112V21.8134V21.8156V21.8177V21.8199V21.8221V21.8242V21.8264V21.8285V21.8307V21.8328V21.8349V21.8371V21.8392V21.8413V21.8434V21.8456V21.8477V21.8498V21.8519V21.854V21.8561V21.8582V21.8603V21.8623V21.8644V21.8665V21.8686V21.8706V21.8727V21.8748V21.8768V21.8789V21.8809V21.883V21.885V21.8871V21.8891V21.8911V21.8931V21.8952V21.8972V21.8992V21.9012V21.9032V21.9052V21.9072V21.9092V21.9112V21.9132V21.9151V21.9171V21.9191V21.9211V21.923V21.925V21.9269V21.9289V21.9308V21.9328V21.9347V21.9367V21.9386V21.9405V21.9424V21.9444V21.9463V21.9482V21.9501V21.952V21.9539V21.9558V21.9577V21.9596V21.9614V21.9633V21.9652V21.9671V21.9689V21.9708V21.9726V21.9745V21.9763V21.9782V21.98V21.9819V21.9837V21.9855V21.9873V21.9892V21.991V21.9928V21.9946V21.9964V21.9982V22V22.0018V22.0036V22.0053V22.0071V22.0089V22.0106V22.0124V22.0142V22.0159V22.0177V22.0194V22.0212V22.0229V22.0246V22.0264V22.0281V22.0298V22.0315V22.0332V22.0349V22.0366V22.0383V22.04V22.0417V22.0434V22.0451V22.0468V22.0484V22.0501V22.0518V22.0534V22.0551V22.0567V22.0584V22.06V22.0616V22.0633V22.0649V22.0665V22.0681V22.0698V22.0714V22.073V22.0746V22.0762V22.0778V22.0793V22.0809V22.0825V22.0841V22.0856V22.0872V22.0888V22.0903V22.0919V22.0934V22.095V22.0965V22.098V22.0996V22.1011V22.1026V22.1041V22.1056V22.1071V22.1086V22.1101V22.1116V22.1131V22.1146V22.1161V22.1176V22.119V22.1205V22.1219V22.1234V22.1249V22.1263V22.1277V22.1292V22.1306V22.132V22.1335V22.1349V22.1363V22.1377V22.1391V22.1405V22.1419V22.1433V22.1447V22.1461V22.1474V22.1488V22.1502V22.1515V22.1529V22.1542V22.1556V22.1569V22.1583V22.1596V22.1609V22.1623V22.1636V22.1649V22.1662V22.1675V22.1688V22.1701V22.1714V22.1727V22.174V22.1753V22.1765V22.1778V22.1791V22.1803V22.1816V22.1828V22.1841V22.1853V22.1865V22.1878V22.189V22.1902V22.1914V22.1926V22.1938V22.195V22.1962V22.1974V22.1986V22.1998V22.201V22.2021V22.2033V22.2045V22.2056V22.2068V22.2079V22.2091V22.2102V22.2113V22.2124V22.2136V22.2147V22.2158V22.2169V22.218V22.2191V22.2202V22.2213V22.2224V22.2234V22.2245V22.2256V22.2267V22.2277V22.2288V22.2298V22.2309V22.2319V22.2329V22.2339V22.235V22.236V22.237V22.238V22.239V22.24V22.241V22.242V22.243V22.244V22.2449V22.2459V22.2469V22.2478V22.2488V22.2497V22.2507V22.2516V22.2525V22.2534V22.2544V22.2553V22.2562V22.2571V22.258V22.2589V22.2598V22.2607V22.2616V22.2624V22.2633V22.2642V22.265V22.2659V22.2667V22.2676V22.2684V22.2693V22.2701V22.2709V22.2717V22.2725V22.2733V22.2742V22.2749V22.2757V22.2765V22.2773V22.2781V22.2789V22.2796V22.2804V22.2811V22.2819V22.2826V22.2834V22.2841V22.2849V22.2856V22.2863V22.287V22.2877V22.2884V22.2891V22.2898V22.2905V22.2912V22.2919V22.2925V22.2932V22.2939V22.2945V22.2952V22.2958V22.2965V22.2971V22.2977V22.2983V22.299V22.2996V22.3002V22.3008V22.3014V22.302V22.3026V22.3031V22.3037V22.3043V22.3049V22.3054V22.306V22.3065V22.3071V22.3076V22.3081V22.3087V22.3092V22.3097V22.3102V22.3107V22.3112V22.3117V22.3122V22.3127V22.3132V22.3136V22.3141V22.3146V22.315V22.3155V22.3159V22.3163V22.3168V22.3172V22.3176V22.318V22.3185V22.3189V22.3193V22.3197V22.3201V22.3204V22.3208V22.3212V22.3216V22.3219V22.3223V22.3226V22.323V22.3233V22.3236V22.324V22.3243V22.3246V22.3249V22.3252V22.3255V22.3258V22.3261V22.3264V22.3267V22.327V22.3272V22.3275V22.3277V22.328V22.3282V22.3285V22.3287V22.3289V22.3292V22.3294V22.3296V22.3298V22.33V22.3302V22.3304V22.3305V22.3307V22.3309V22.3311V22.3312V22.3314V22.3315V22.3317V22.3318V22.3319V22.332V22.3322V22.3323V22.3324V22.3325V22.3326V22.3327V22.3328V22.3328V22.3329V22.333V22.333V22.3331V22.3331V22.3332V22.3332V22.3333V22.3333V22.3333V22.3333V22.3333C9.5 22.9775 10.0225 23.5 10.6667 23.5H22.6667C23.3108 23.5 23.8333 22.9775 23.8333 22.3333V21.6667C23.8333 19.766 23.078 17.9429 21.7342 16.5991C21.1114 15.9763 20.3862 15.4804 19.5986 15.1271Z"
      fill="#FF4334" stroke="white" />
  </g>
  <defs>
    <clipPath id="clip0_64_4959">
      <rect width="24" height="24" fill="white" />
    </clipPath>
  </defs>
</svg>
  