<?xml version="1.0" encoding="UTF-8"?>
<svg width="24" height="24" viewBox="0 0 24 24" fill="none" xmlns="http://www.w3.org/2000/svg">
  <path
    d="M12 12C14.2091 12 16 10.2091 16 8C16 5.79086 14.2091 4 12 4C9.79086 4 8 5.79086 8 8C8 10.2091 9.79086 12 12 12Z"
    fill="#FF4334" />
  <path fill-rule="evenodd" clip-rule="evenodd"
    d="M14.7275 12.5834C15.4602 12.912 16.1348 13.3734 16.7142 13.9527C17.9642 15.2027 18.6668 16.8987 18.6668 18.6667V19.3334C18.6668 19.7014 18.3682 20 18.0002 20H6.00016C5.63216 20 5.3335 19.7014 5.3335 19.3334C5.3335 19.3334 5.3335 19.078 5.3335 18.6667C5.3335 16.8987 6.03616 15.2027 7.28616 13.9527C7.8655 13.3734 8.54016 12.912 9.27283 12.5834C10.0715 13.06 11.0042 13.3334 12.0002 13.3334C12.9962 13.3334 13.9288 13.06 14.7275 12.5834Z"
    fill="#FF4334" />
</svg>
  