<?xml version="1.0" encoding="UTF-8"?>
<svg width="18" height="20" viewBox="0 0 18 20" fill="none" xmlns="http://www.w3.org/2000/svg">
  <path
    d="M12.833 5.00007C12.833 7.20919 11.0421 9.00004 8.83298 9.00004C6.62386 9.00004 4.83301 7.20919 4.83301 5.00007C4.83301 2.79094 6.62386 1.00009 8.83298 1.00009C11.0421 1.00009 12.833 2.79094 12.833 5.00007Z"
    fill="white" stroke="#747474" stroke-width="2" stroke-linejoin="round" />
  <path
    d="M8.83329 12.6667C10.0664 12.6667 11.2341 12.3746 12.2689 11.8546C12.9073 12.1933 13.498 12.6273 14.0187 13.148C15.3936 14.523 16.1666 16.3886 16.1666 18.3333V19H1.5V18.9997V18.9983V18.9968V18.9953V18.9938V18.9923V18.9908V18.9893V18.9878V18.9862V18.9847V18.9832V18.9816V18.9801V18.9785V18.977V18.9754V18.9738V18.9723V18.9707V18.9691V18.9675V18.9659V18.9643V18.9627V18.961V18.9594V18.9578V18.9561V18.9545V18.9528V18.9512V18.9495V18.9479V18.9462V18.9445V18.9428V18.9411V18.9394V18.9377V18.936V18.9343V18.9326V18.9309V18.9291V18.9274V18.9256V18.9239V18.9221V18.9204V18.9186V18.9168V18.9151V18.9133V18.9115V18.9097V18.9079V18.9061V18.9043V18.9024V18.9006V18.8988V18.897V18.8951V18.8933V18.8914V18.8896V18.8877V18.8858V18.8839V18.8821V18.8802V18.8783V18.8764V18.8745V18.8726V18.8706V18.8687V18.8668V18.8649V18.8629V18.861V18.859V18.8571V18.8551V18.8531V18.8512V18.8492V18.8472V18.8452V18.8432V18.8412V18.8392V18.8372V18.8352V18.8332V18.8311V18.8291V18.8271V18.825V18.823V18.8209V18.8189V18.8168V18.8147V18.8126V18.8105V18.8085V18.8064V18.8043V18.8022V18.8V18.7979V18.7958V18.7937V18.7915V18.7894V18.7873V18.7851V18.783V18.7808V18.7786V18.7765V18.7743V18.7721V18.7699V18.7677V18.7655V18.7633V18.7611V18.7589V18.7567V18.7545V18.7522V18.75V18.7478V18.7455V18.7433V18.741V18.7387V18.7365V18.7342V18.7319V18.7296V18.7273V18.725V18.7228V18.7204V18.7181V18.7158V18.7135V18.7112V18.7088V18.7065V18.7042V18.7018V18.6995V18.6971V18.6947V18.6924V18.69V18.6876V18.6852V18.6829V18.6805V18.6781V18.6757V18.6733V18.6708V18.6684V18.666V18.6636V18.6611V18.6587V18.6563V18.6538V18.6513V18.6489V18.6464V18.6439V18.6415V18.639V18.6365V18.634V18.6315V18.629V18.6265V18.624V18.6215V18.619V18.6164V18.6139V18.6114V18.6088V18.6063V18.6037V18.6012V18.5986V18.5961V18.5935V18.5909V18.5883V18.5857V18.5831V18.5806V18.578V18.5753V18.5727V18.5701V18.5675V18.5649V18.5622V18.5596V18.557V18.5543V18.5517V18.549V18.5464V18.5437V18.541V18.5383V18.5357V18.533V18.5303V18.5276V18.5249V18.5222V18.5195V18.5168V18.5141V18.5113V18.5086V18.5059V18.5031V18.5004V18.4976V18.4949V18.4921V18.4894V18.4866V18.4838V18.4811V18.4783V18.4755V18.4727V18.4699V18.4671V18.4643V18.4615V18.4587V18.4559V18.4531V18.4502V18.4474V18.4446V18.4417V18.4389V18.436V18.4332V18.4303V18.4274V18.4246V18.4217V18.4188V18.4159V18.413V18.4102V18.4073V18.4044V18.4014V18.3985V18.3956V18.3927V18.3898V18.3868V18.3839V18.381V18.378V18.3751V18.3721V18.3692V18.3662V18.3632V18.3603V18.3573V18.3543V18.3513V18.3484V18.3454V18.3424V18.3394V18.3364V18.3333C1.5 16.3886 2.27294 14.523 3.64793 13.148C4.1686 12.6273 4.75929 12.1933 5.39771 11.8546C6.43249 12.3746 7.60015 12.6667 8.83329 12.6667Z"
    fill="white" stroke="#747474" stroke-width="2" stroke-linejoin="round" />
</svg>
  