<?xml version="1.0" encoding="UTF-8"?>
<svg width="23" height="25" viewBox="0 0 23 25" fill="none" xmlns="http://www.w3.org/2000/svg">
  <path
    d="M20.9641 8.1875H2.03587C1.89375 8.1875 1.75745 8.13069 1.65695 8.02957C1.55646 7.92844 1.5 7.79129 1.5 7.64828V6.03125C1.5 5.45938 1.72576 4.91093 2.12763 4.50655C2.52949 4.10218 3.07454 3.875 3.64286 3.875H5.78571V1.53922C5.78571 1.39621 5.84217 1.25906 5.94267 1.15793C6.04316 1.05681 6.17946 1 6.32159 1H8.10762C8.24974 1 8.38604 1.05681 8.48654 1.15793C8.58703 1.25906 8.64349 1.39621 8.64349 1.53922V3.875H14.3578V1.53922C14.3578 1.39632 14.4141 1.25927 14.5145 1.15816C14.6149 1.05705 14.751 1.00017 14.893 1H16.679C16.7494 1 16.8191 1.01395 16.8841 1.04105C16.9491 1.06814 17.0082 1.10786 17.058 1.15793C17.1077 1.20801 17.1472 1.26745 17.1741 1.33287C17.2011 1.39829 17.2149 1.46841 17.2149 1.53922V3.875H19.3578C19.926 3.87517 20.4709 4.10242 20.8726 4.50678C21.2743 4.91113 21.5 5.45949 21.5 6.03125V7.64828C21.5 7.71909 21.4861 7.78921 21.4592 7.85463C21.4323 7.92005 21.3928 7.97949 21.343 8.02957C21.2933 8.07964 21.2342 8.11936 21.1692 8.14645C21.1042 8.17355 21.0345 8.1875 20.9641 8.1875ZM2.03587 9.625H20.9641C21.0345 9.625 21.1042 9.63895 21.1692 9.66605C21.2342 9.69314 21.2933 9.73286 21.343 9.78293C21.3928 9.83301 21.4323 9.89245 21.4592 9.95787C21.4861 10.0233 21.5 10.0934 21.5 10.1642V21.8438C21.5 22.4156 21.2742 22.9641 20.8724 23.3685C20.4705 23.7728 19.9255 24 19.3571 24H3.64286C3.07454 24 2.52949 23.7728 2.12763 23.3685C1.72576 22.9641 1.5 22.4156 1.5 21.8438V10.1642C1.5 10.0212 1.55646 9.88406 1.65695 9.78293C1.75745 9.68181 1.89375 9.625 2.03587 9.625ZM16.9152 13.9349L15.6575 12.6572C15.557 12.5562 15.4208 12.4994 15.2787 12.4994C15.1367 12.4994 15.0005 12.5562 14.9 12.6572L10.166 17.3849L8.11333 15.3028C8.01285 15.2018 7.87663 15.1451 7.7346 15.1451C7.59257 15.1451 7.45635 15.2018 7.35587 15.3028L6.08603 16.5684C5.98565 16.6696 5.92927 16.8066 5.92927 16.9495C5.92927 17.0925 5.98565 17.2295 6.08603 17.3306L9.77365 21.0713C9.87413 21.1723 10.0104 21.2291 10.1524 21.2291C10.2944 21.2291 10.4306 21.1723 10.5311 21.0713L16.9127 14.701C17.0131 14.5999 17.0695 14.4628 17.0695 14.3199C17.0695 14.177 17.0131 14.0399 16.9127 13.9388L16.9152 13.9349Z"
    fill="white" stroke="#747474" stroke-width="2" />
</svg>
  