<?xml version="1.0" encoding="UTF-8"?>
<svg width="21" height="23" viewBox="0 0 21 23" fill="none" xmlns="http://www.w3.org/2000/svg">
  <path
    d="M19.9641 7.1875H1.03587C0.893751 7.1875 0.757449 7.13069 0.656954 7.02957C0.556458 6.92844 0.5 6.79129 0.5 6.64828V5.03125C0.5 4.45938 0.725765 3.91093 1.12763 3.50655C1.52949 3.10218 2.07454 2.875 2.64286 2.875H4.78571V0.539222C4.78571 0.396212 4.84217 0.259058 4.94267 0.157935C5.04316 0.0568108 5.17946 0 5.32159 0H7.10762C7.24974 0 7.38604 0.0568108 7.48654 0.157935C7.58703 0.259058 7.64349 0.396212 7.64349 0.539222V2.875H13.3578V0.539222C13.3578 0.396322 13.4141 0.259266 13.5145 0.15816C13.6149 0.0570548 13.751 0.000169313 13.893 0L15.679 0C15.7494 0 15.8191 0.0139474 15.8841 0.0410458C15.9491 0.0681443 16.0082 0.107863 16.058 0.157935C16.1077 0.208006 16.1472 0.267449 16.1741 0.332871C16.2011 0.398292 16.2149 0.468411 16.2149 0.539222V2.875H18.3578C18.926 2.87517 19.4709 3.10242 19.8726 3.50678C20.2743 3.91113 20.5 4.45949 20.5 5.03125V6.64828C20.5 6.71909 20.4861 6.78921 20.4592 6.85463C20.4323 6.92005 20.3928 6.97949 20.343 7.02957C20.2933 7.07964 20.2342 7.11936 20.1692 7.14645C20.1042 7.17355 20.0345 7.1875 19.9641 7.1875ZM1.03587 8.625H19.9641C20.0345 8.625 20.1042 8.63895 20.1692 8.66605C20.2342 8.69314 20.2933 8.73286 20.343 8.78293C20.3928 8.83301 20.4323 8.89245 20.4592 8.95787C20.4861 9.02329 20.5 9.09341 20.5 9.16422V20.8438C20.5 21.4156 20.2742 21.9641 19.8724 22.3685C19.4705 22.7728 18.9255 23 18.3571 23H2.64286C2.07454 23 1.52949 22.7728 1.12763 22.3685C0.725765 21.9641 0.5 21.4156 0.5 20.8438V9.16422C0.5 9.02121 0.556458 8.88406 0.656954 8.78293C0.757449 8.68181 0.893751 8.625 1.03587 8.625ZM15.9152 12.9349L14.6575 11.6572C14.557 11.5562 14.4208 11.4994 14.2787 11.4994C14.1367 11.4994 14.0005 11.5562 13.9 11.6572L9.16603 16.3849L7.11333 14.3028C7.01285 14.2018 6.87663 14.1451 6.7346 14.1451C6.59257 14.1451 6.45635 14.2018 6.35587 14.3028L5.08603 15.5684C4.98565 15.6696 4.92927 15.8066 4.92927 15.9495C4.92927 16.0925 4.98565 16.2295 5.08603 16.3306L8.77365 20.0713C8.87413 20.1723 9.01035 20.2291 9.15238 20.2291C9.29441 20.2291 9.43063 20.1723 9.53111 20.0713L15.9127 13.701C16.0131 13.5999 16.0695 13.4628 16.0695 13.3199C16.0695 13.177 16.0131 13.0399 15.9127 12.9388L15.9152 12.9349Z"
    fill="#FF4334" />
</svg>
  