<?xml version="1.0" encoding="UTF-8"?>
<svg width="16" height="12" viewBox="0 0 16 12" fill="none" xmlns="http://www.w3.org/2000/svg">
  <path
    d="M13.4783 0.647929L6.25001 7.93699L2.52169 4.17738C2.4278 4.08271 2.29999 4.02945 2.16666 4.02945C2.03333 4.02945 1.90552 4.08271 1.81163 4.17738L0.644971 5.35385C0.451676 5.54876 0.451676 5.86307 0.644972 6.05799L5.89498 11.3521C5.98887 11.4467 6.11668 11.5 6.25001 11.5C6.38335 11.5 6.51116 11.4467 6.60504 11.3521L15.355 2.52854C15.5483 2.33362 15.5483 2.01932 15.355 1.8244L14.1884 0.647931C14.0945 0.553256 13.9667 0.5 13.8333 0.5C13.7 0.5 13.5722 0.553254 13.4783 0.647929Z"
    fill="#FF4334" stroke="#FF4334" stroke-linejoin="round" />
</svg>
  