<?xml version="1.0" encoding="UTF-8"?>
<svg width="24" height="24" viewBox="0 0 24 24" fill="none" xmlns="http://www.w3.org/2000/svg">
  <path
    d="M12 12C14.2091 12 16 10.2091 16 8C16 5.79086 14.2091 4 12 4C9.79086 4 8 5.79086 8 8C8 10.2091 9.79086 12 12 12Z"
    fill="#CCCCCC" />
  <path fill-rule="evenodd" clip-rule="evenodd"
    d="M14.7273 12.5833C15.4599 12.912 16.1346 13.3733 16.7139 13.9527C17.9639 15.2027 18.6666 16.8987 18.6666 18.6667V19.3333C18.6666 19.7013 18.3679 20 17.9999 20H5.99992C5.63192 20 5.33325 19.7013 5.33325 19.3333C5.33325 19.3333 5.33325 19.078 5.33325 18.6667C5.33325 16.8987 6.03592 15.2027 7.28592 13.9527C7.86525 13.3733 8.53992 12.912 9.27259 12.5833C10.0713 13.06 11.0039 13.3333 11.9999 13.3333C12.9959 13.3333 13.9286 13.06 14.7273 12.5833Z"
    fill="#CCCCCC" />
</svg>
  